<svg id="Capa_1" data-name="Capa 1" xmlns="http://www.w3.org/2000/svg" viewBox="0 0 512 488.15"><defs><style>.cls-1{fill:#fff;fill-rule:evenodd;}</style></defs><path class="cls-1" d="M304.73,467.72H175.8V16.29H424v238.4a132.08,132.08,0,0,1,16.3,2.56V14.31A14.36,14.36,0,0,0,426,0H173.82a14.36,14.36,0,0,0-14.31,14.31V136.25H12a12,12,0,0,0-12,12V475.86A8.15,8.15,0,0,0,8.15,484l311-.07-2.1-2.05a133.83,133.83,0,0,1-12.31-14.17ZM411.39,286.93A100.61,100.61,0,1,1,310.77,387.54,100.63,100.63,0,0,1,411.39,286.93Zm53,90.41v20.39a7.58,7.58,0,0,1-7.56,7.56H429.14V433a7.58,7.58,0,0,1-7.57,7.57H401.19a7.59,7.59,0,0,1-7.55-7.57V405.29H366a7.58,7.58,0,0,1-7.55-7.56V377.34a7.58,7.58,0,0,1,7.55-7.55h27.68V342.12a7.58,7.58,0,0,1,7.55-7.55h20.38a7.58,7.58,0,0,1,7.57,7.55v27.67H456.8a7.58,7.58,0,0,1,7.56,7.55ZM16.29,467.72V152.54H159.51V467.72Zm332.62-198.1H319.58l-.12,0h0l-.12,0h0l-.12,0h0l-.11,0h0l-.12,0h0l-.11.05h0a3,3,0,0,0-1.7,2.58v20.75a134,134,0,0,1,31.83-23.54Zm-30.13-93.41a3,3,0,0,0-1.7,2.57V224a3,3,0,0,0,1.7,2.58h0l.11,0h0l.12,0h0l.11,0h0l.12,0h0l.12,0h0l.12,0h53.88a2.81,2.81,0,0,0,2.79-2.8V209.11l0,0v-30.3a2.79,2.79,0,0,0-1.86-2.62l-.11,0h0l-.11,0h0l-.11,0h0l-.12,0h0l-.11,0H319.58l-.12,0h0l-.12,0h0l-.12,0h0l-.11,0h0l-.12,0h0l-.11.05Zm-40.87,187h-53.6a3.12,3.12,0,0,0-2.79,2.79V411.3a3,3,0,0,0,2.79,2.8h53.6a2.79,2.79,0,0,0,2.41-1.39,134.72,134.72,0,0,1-.35-48.4,3.12,3.12,0,0,0-2.06-1.06Zm0-93.63h-53.6a3.12,3.12,0,0,0-2.79,2.79v45.26a2.94,2.94,0,0,0,2.79,2.79h53.6a2.79,2.79,0,0,0,2.79-2.79V272.41A3.11,3.11,0,0,0,277.91,269.62Zm0-93.63h-53.6a3.13,3.13,0,0,0-2.79,2.79V224a3,3,0,0,0,2.79,2.8h53.6a2.81,2.81,0,0,0,2.79-2.8V178.78A3.11,3.11,0,0,0,277.91,176ZM120.05,321.17H55.48c-.72,0-1.36.55-1.36,1v26.53c0,.44.68,1,1.36,1h64.57c.69,0,1.37-.44,1.37-1V322.16C121.42,321.62,120.74,321.17,120.05,321.17ZM387.55,51.73H212.26a6.59,6.59,0,0,0-6.51,6.52v69.26a6.6,6.6,0,0,0,6.51,6.52H387.55a6.57,6.57,0,0,0,6.52-6.52V58.25a6.57,6.57,0,0,0-6.52-6.52ZM120.05,263.12H55.48c-.72,0-1.36.55-1.36,1v26.53c0,.44.68,1,1.36,1h64.57c.69,0,1.37-.45,1.37-1V264.11c0-.55-.68-1-1.37-1Zm0-58.05H55.48c-.72,0-1.36.54-1.36,1v26.54c0,.43.68,1,1.36,1h64.57c.69,0,1.37-.44,1.37-1V206.05c0-.54-.68-1-1.37-1Z" transform="translate(0 0)"/></svg>