<?xml version="1.0" encoding="utf-8"?>
<!-- Generator: Adobe Illustrator 24.2.0, SVG Export Plug-In . SVG Version: 6.00 Build 0)  -->
<svg version="1.1" id="Capa_1" xmlns="http://www.w3.org/2000/svg" xmlns:xlink="http://www.w3.org/1999/xlink" x="0px" y="0px"
	 viewBox="0 0 100 100" style="enable-background:new 0 0 100 100;" xml:space="preserve">
<style type="text/css">
	.st0{fill:#5366DE;}
	.st1{fill:#CBD1F5;}
</style>
<g>
	<g>
		<path class="st0" d="M50.2,59.3c5.3,0,10.6-0.4,15.8,0.6c6.7,1.3,12.9,3.9,18.3,8.1c3.7,2.9,6.9,6.3,9.6,10.2
			c0.3,0.5,0.5,1,0.5,1.6c0,6.9,0,13.8,0,20.7c-14.7,0-29.5,0-44.2,0C50.2,86.8,50.2,73,50.2,59.3z"/>
		<path class="st0" d="M50.2,0C55.9-0.1,61,1.6,65.6,4.9c5.6,4,9.2,9.4,10.6,16.1c1.6,7.6,0.1,14.6-4.4,20.9
			c-4,5.6-9.4,9.1-16.2,10.5c-1.8,0.4-3.5,0.6-5.3,0.5C50.2,35.3,50.2,17.7,50.2,0z"/>
	</g>
	<g>
		<path class="st1" d="M50.2,59.3c0,13.7,0,27.5,0,41.2c-14.7,0-29.5,0-44.2,0c0-6.9,0-13.7,0-20.6c0-0.7,0.1-1.2,0.5-1.7
			c6.9-9.9,16.2-16,28-18.3c2.2-0.4,4.5-0.6,6.7-0.6C44.3,59.3,47.2,59.3,50.2,59.3z"/>
		<path class="st1" d="M50.2,0c0,17.6,0,35.3,0,52.9c-8.4-0.1-15.3-3.4-20.6-9.9c-4.6-5.6-6.5-12.1-5.7-19.3c1.1-9.5,6-16.5,14.5-21
			C42.1,0.9,46.1,0,50.2,0z"/>
	</g>
</g>
</svg>
