<?xml version="1.0" encoding="utf-8"?>
<!-- Generator: Adobe Illustrator 24.2.0, SVG Export Plug-In . SVG Version: 6.00 Build 0)  -->
<svg version="1.1" id="Logo" xmlns="http://www.w3.org/2000/svg" xmlns:xlink="http://www.w3.org/1999/xlink" x="0px" y="0px"
	 viewBox="0 0 174 22" style="enable-background:new 0 0 174 22;" xml:space="preserve">
<style type="text/css">
	.st0{fill:#5366DE;}
	.st1{fill:#CBD1F5;}
</style>
<g id="Capa_1">
	<g>
		<path class="st0" d="M1,21.3c0.1-0.4,0.3-0.8,0.5-1.1C4.3,13.9,7.1,7.6,9.8,1.4c0.2-0.5,0.5-0.7,1.1-0.7c2.5,0,5,0,7.5,0
			c0.3,0,0.4,0.1,0.6,0.4c0.5,1.1,1,2.2,1.5,3.4c-0.2,0-0.4,0-0.5,0c-2.3,0-4.7,0-7,0c-0.3,0-0.4,0.1-0.6,0.4
			c-0.8,1.8-1.6,3.7-2.5,5.5c-1,2.3-2,4.5-3,6.8c-0.2,0.4-0.1,0.4,0.3,0.4c0.6,0,1.2,0,1.9,0c0.3,0,0.5-0.1,0.6-0.4
			c0.8-1.8,1.6-3.7,2.4-5.5c0.1-0.3,0.3-0.4,0.6-0.4c1.2,0,2.5,0,3.7,0c0.3,0,0.4,0.1,0.5,0.3c0.4,1,0.9,2,1.3,3
			c0.1,0.3,0.2,0.4-0.3,0.4c-0.9,0-1.9,0-2.8,0c-0.3,0-0.5,0.1-0.6,0.4c-0.8,1.8-1.6,3.7-2.4,5.5c-0.1,0.2-0.2,0.3-0.4,0.3
			c-3.5,0-6.9,0-10.4,0C1.2,21.3,1.1,21.3,1,21.3z"/>
		<path class="st1" d="M17.5,6.8c1.3,0,2.6,0,3.9,0c0.3,0,0.3,0.2,0.4,0.4c1.4,3.2,2.9,6.4,4.3,9.6c0.6,1.4,1.2,2.7,1.8,4.1
			C28,21,28,21.1,28,21.3c-1.3,0-2.6,0-3.9,0c-0.3,0-0.3-0.2-0.3-0.4c-1.4-3.2-2.8-6.4-4.3-9.6C18.8,9.9,18.1,8.4,17.5,6.8z"/>
	</g>
</g>
<g>
	<path class="st0" d="M32.9,20V2.1h11.9v2.7H36v4.7h7.8V12H36v8H32.9z"/>
	<path class="st0" d="M43.9,20l6.6-17.8h3.2L60.3,20H57l-1.6-4.7h-6.9L47,20H43.9z M49.4,12.9h5.2L52,5.2h0L49.4,12.9z"/>
	<path class="st0" d="M61,11.1c0-2.6,0.7-4.9,2.2-6.7c1.5-1.8,3.5-2.7,6-2.7c2,0,3.7,0.5,5,1.6s2.1,2.6,2.3,4.5h-3
		c-0.6-2.4-2-3.6-4.3-3.6c-1.7,0-3,0.7-3.9,2c-0.9,1.4-1.3,3-1.3,4.9s0.4,3.5,1.3,4.8s2.2,2,3.9,2c1.3,0,2.3-0.4,3-1.3
		c0.7-0.9,1.2-2,1.3-3.4h2.9c-0.1,2.1-0.9,3.9-2.2,5.2c-1.3,1.3-3,2-5.1,2c-2.5,0-4.5-0.9-6-2.7C61.7,15.9,61,13.7,61,11.1z"/>
	<path class="st0" d="M77.6,4.8V2.1h13.9v2.7H86V20h-3V4.8H77.6z"/>
	<path class="st0" d="M93.3,13.6V2.1h3v10.4c0,0.6,0,1.1,0,1.5s0.1,0.8,0.3,1.4c0.1,0.5,0.4,0.9,0.6,1.2c0.3,0.3,0.7,0.6,1.2,0.8
		s1.2,0.3,1.9,0.3c0.8,0,1.4-0.1,1.9-0.3c0.5-0.2,0.9-0.5,1.2-0.8s0.5-0.7,0.6-1.2s0.2-1,0.3-1.4c0-0.4,0-0.9,0-1.5V2.1h3v11.4
		c0,2.2-0.6,3.9-1.9,5.1s-3,1.8-5.2,1.8s-3.9-0.6-5.2-1.8C93.9,17.5,93.3,15.8,93.3,13.6z"/>
	<path class="st0" d="M110.9,20V2.1h8.2c1.9,0,3.3,0.4,4.2,1.3c1,0.8,1.4,2,1.4,3.6c0,0.8-0.1,1.5-0.3,2.1c-0.2,0.6-0.5,1.1-0.9,1.4
		c-0.4,0.3-0.7,0.6-0.9,0.7c-0.2,0.1-0.5,0.2-0.7,0.3l0,0c0.7,0.1,1.2,0.4,1.8,1c0.5,0.6,0.8,1.5,0.8,2.8c0,2.4,0.3,4,0.9,4.7h-3.2
		c-0.3-0.5-0.5-1.4-0.5-2.6c0-1.7-0.2-2.9-0.7-3.7c-0.5-0.7-1.4-1.1-2.7-1.1h-4.4V20H110.9z M113.9,4.7v5.6h4.9c2,0,2.9-0.9,2.9-2.9
		c0-1-0.3-1.8-0.8-2.1c-0.5-0.4-1.3-0.6-2.2-0.6C118.7,4.7,113.9,4.7,113.9,4.7z"/>
	<path class="st1" d="M125.8,20l6.6-17.8h3.2l6.6,17.8H139l-1.6-4.7h-6.9l-1.6,4.7H125.8z M131.3,12.9h5.2L134,5.2h-0.1L131.3,12.9z
		"/>
	<path class="st1" d="M143.8,20V2.1h7.6c1.2,0,2.1,0.2,3,0.5c0.8,0.4,1.4,0.8,1.8,1.4s0.7,1.2,0.8,1.8c0.2,0.6,0.2,1.2,0.2,1.8
		s-0.1,1.2-0.2,1.8c-0.2,0.6-0.4,1.2-0.8,1.7c-0.4,0.6-1,1-1.8,1.4s-1.8,0.5-3,0.5h-4.6v7H143.8z M146.8,4.7v5.9h4.4
		c0.8,0,1.5-0.2,2.1-0.7s0.9-1.2,0.9-2.3c0-2-1-2.9-3-2.9C151.2,4.7,146.8,4.7,146.8,4.7z"/>
	<path class="st1" d="M159.9,20V2.1h7.6c1.2,0,2.1,0.2,3,0.5c0.8,0.4,1.4,0.8,1.8,1.4s0.7,1.2,0.8,1.8c0.2,0.6,0.2,1.2,0.2,1.8
		s-0.1,1.2-0.2,1.8c-0.2,0.6-0.4,1.2-0.8,1.7c-0.4,0.6-1,1-1.8,1.4s-1.8,0.5-3,0.5h-4.6v7H159.9z M162.9,4.7v5.9h4.4
		c0.8,0,1.5-0.2,2.1-0.7s0.9-1.2,0.9-2.3c0-2-1-2.9-3-2.9C167.3,4.7,162.9,4.7,162.9,4.7z"/>
</g>
</svg>
