<?xml version="1.0" encoding="utf-8"?>
<!-- Generator: Adobe Illustrator 24.2.0, SVG Export Plug-In . SVG Version: 6.00 Build 0)  -->
<svg version="1.1" id="Logo" xmlns="http://www.w3.org/2000/svg" xmlns:xlink="http://www.w3.org/1999/xlink" x="0px" y="0px"
	 viewBox="0 0 29.7 22" style="enable-background:new 0 0 29.7 22;" xml:space="preserve">
<style type="text/css">
	.st0{fill:#CBD1F5;}
	.st1{fill:#5366DE;}
</style>
<g id="Capa_1">
	<g>
		<path class="st0" d="M1,21.3c0.1-0.4,0.3-0.8,0.5-1.1C4.3,13.9,7.1,7.6,9.8,1.4c0.2-0.5,0.5-0.7,1.1-0.7c2.5,0,5,0,7.5,0
			c0.3,0,0.4,0.1,0.6,0.4c0.5,1.1,1,2.2,1.5,3.4c-0.2,0-0.4,0-0.5,0c-2.3,0-4.7,0-7,0c-0.3,0-0.4,0.1-0.6,0.4
			c-0.8,1.8-1.6,3.7-2.5,5.5c-1,2.3-2,4.5-3,6.8c-0.2,0.4-0.1,0.4,0.3,0.4c0.6,0,1.2,0,1.9,0c0.3,0,0.5-0.1,0.6-0.4
			c0.8-1.8,1.6-3.7,2.4-5.5c0.1-0.3,0.3-0.4,0.6-0.4c1.2,0,2.5,0,3.7,0c0.3,0,0.4,0.1,0.5,0.3c0.4,1,0.9,2,1.3,3
			c0.1,0.3,0.2,0.4-0.3,0.4c-0.9,0-1.9,0-2.8,0c-0.3,0-0.5,0.1-0.6,0.4c-0.8,1.8-1.6,3.7-2.4,5.5c-0.1,0.2-0.2,0.3-0.4,0.3
			c-3.5,0-6.9,0-10.4,0C1.2,21.3,1.1,21.3,1,21.3z"/>
		<path class="st1" d="M17.5,6.8c1.3,0,2.6,0,3.9,0c0.3,0,0.3,0.2,0.4,0.4c1.4,3.2,2.9,6.4,4.3,9.6c0.6,1.4,1.2,2.7,1.8,4.1
			C28,21,28,21.1,28,21.3c-1.3,0-2.6,0-3.9,0c-0.3,0-0.3-0.2-0.3-0.4c-1.4-3.2-2.8-6.4-4.3-9.6C18.8,9.9,18.1,8.4,17.5,6.8z"/>
	</g>
</g>
</svg>
